<?xml version="1.0" encoding="UTF-8" standalone="no"?>
<svg
   xmlns:dc="http://purl.org/dc/elements/1.1/"
   xmlns:cc="http://creativecommons.org/ns#"
   xmlns:rdf="http://www.w3.org/1999/02/22-rdf-syntax-ns#"
   xmlns:svg="http://www.w3.org/2000/svg"
   xmlns="http://www.w3.org/2000/svg"
   id="svg8"
   version="1.1"
   viewBox="0 0 88.17424 62.123829"
   height="62.123829mm"
   width="88.17424mm">
  <defs
     id="defs2" />
  <metadata
     id="metadata5">
    <rdf:RDF>
      <cc:Work
         rdf:about="">
        <dc:format>image/svg+xml</dc:format>
        <dc:type
           rdf:resource="http://purl.org/dc/dcmitype/StillImage" />
        <dc:title></dc:title>
      </cc:Work>
    </rdf:RDF>
  </metadata>
  <g
     transform="translate(-53.688022,-30.967197)"
     id="layer1">
    <path
       id="path826"
       d="m 82.64863,92.931846 c -1.697105,-0.37153 -0.267036,-3.331671 -2.979173,-2.129333 -4.11874,0.595673 -7.94945,-0.625529 -11.148655,-3.130265 -2.644809,-1.551196 -6.124857,-2.42061 -7.704433,-5.251475 -0.568396,-1.968815 1.719388,-6.539242 -1.38229,-4.324346 -2.309704,0.879556 -5.6729,-1.580535 -5.745547,-4.034832 -0.03703,-2.018912 1.949628,-3.193726 3.774254,-3.056053 2.711361,0.02051 5.16864,-1.096776 7.739966,-1.785228 2.053768,-0.256603 3.612715,-2.025984 5.825489,-1.552145 3.901371,-1.011981 5.865234,-5.388994 8.853111,-7.865007 1.848179,-2.563147 4.94266,-4.588454 4.899992,-7.9656 0.488013,-3.205835 4.791528,-1.499164 6.482455,-3.537261 3.74875,-2.750067 8.478007,-3.6749 12.118231,-6.609238 2.84673,-2.274698 5.47281,-4.422584 9.203,-5.17482 4.10162,-0.205017 6.08467,-4.161198 9.70002,-5.276104 3.41738,-1.028386 6.65961,1.065037 9.57989,2.692771 3.73972,0.702691 9.35476,3.357282 7.35961,8.028812 -2.00248,3.538457 -4.9045,6.548167 -8.4617,8.562887 -3.1822,2.40621 -7.0143,4.309386 -9.88225,6.898188 -0.68355,3.208644 -3.00169,6.28198 -5.53588,8.394245 -2.87667,0.813694 1.47101,3.013605 2.26213,4.219969 1.27629,1.310408 3.33958,1.363269 5.05122,1.487186 2.18534,0.02302 3.71331,-2.187322 5.94784,-1.688992 3.1538,0.82009 -4.5047,2.712724 -0.11707,2.204429 2.07491,-0.536367 4.57186,0.115562 6.17437,1.474437 -1.37312,2.904384 -4.97315,-0.330184 -7.44886,1.057366 -2.36896,-1.372919 -4.77861,0.21215 -7.23081,-0.104456 -0.68878,1.579738 2.56638,3.932712 -0.51548,3.835073 -3.19682,0.58858 -2.32055,-4.040336 -5.89703,-2.821475 -2.35532,-0.0093 2.58651,3.140176 3.39474,4.348195 3.37275,1.665202 4.48871,6.10837 8.26899,6.878582 3.07303,0.165989 6.16816,-3.462095 8.06685,0.655445 1.32974,0.879287 4.26604,-0.380425 5.90381,-0.195023 1.98178,0.685477 4.54609,4.233481 0.55422,3.27418 -2.06955,-1.712481 -5.57372,-1.11956 -7.73073,-0.311048 1.66276,3.861045 -4.57526,2.108939 -5.35948,0.34932 -3.26121,-0.13939 -6.63966,0.211221 -9.77016,-0.836387 -1.54708,-2.883007 -4.11897,-4.734197 -6.98571,-6.232597 -2.38514,-1.110441 -3.76106,-3.437207 -5.64971,-5.163258 -2.06802,3.49943 -5.256818,6.177475 -9.060659,7.591092 -4.293728,1.007554 1.414068,0.429502 2.781727,0.644969 1.928851,-0.804918 7.295322,2.699983 3.399082,2.917406 -2.050502,-1.921912 -5.140892,-1.181283 -7.745508,-1.123484 -1.217591,0.915076 8.153338,-0.210074 4.845379,2.469915 -3.991742,-0.446502 -8.090245,-0.332618 -12.043056,-1.0084 -4.290718,-1.479747 0.873294,3.787179 -3.014333,3.322379 l -0.777831,-0.130044 z"
       style="fill:#000000;fill-opacity:1;stroke-width:0.10916451" />
  </g>
</svg>
