<svg xmlns="http://www.w3.org/2000/svg" viewBox="0 0 50.204 56.957" height="215.271" width="189.749">
    <path d="M7.042 4.444s-1.087-.284-2.079.472c-.992.756-1.606 1.748-2.315 2.74-.709.993-1.606 1.229-1.795 1.087-.19-.141-.804-2.173-.71-2.457.095-.283.71-2.645 1.04-2.929.331-.283 1.607-1.984 3.827-2.74 2.221-.756 6.19-.945 8.221 1.842 2.032 2.788 2.93 8.363 2.552 12.285-.378 3.921-.426 9.827 1.134 12.52 1.559 2.693 2.267 3.78 2.834 3.827.567.047 2.127-1.937 4.867-2.032 2.74-.094 8.22 1.323 11.197 3.922 2.977 2.599 2.694 4.016 4.82 4.347 2.126.33 3.212-.331 3.59-.473.378-.141 2.835-1.417 3.26-1.512.426-.094.378.52.331.804-.047.283.19 1.464.19 1.464s.594.354.744 1.406c.15 1.053.067.618.15.97.084.35.1.901.168 1.085.066.184.25.668.4.902.15.234.635.752.602.986-.034.233-.05.467-.267.567-.218.1-.184.017-.368.134s-.334-.033-.434.017c-.1.05.016.167-.234.15-.25-.017-.434-.15-.652-.25-.217-.1-1.102-.418-1.42-.451-.317-.034-.467-.034-1.035.15-.568.184-.618.468-1.22.25-.6-.217-.734-.484-1.035-.618-.3-.133-.602-.284-.952-.066-.351.217-.301 1.436-.501 1.67-.2.234-.401.618-.401.618s.334.986.35 1.854c.017.869-.2 2.055-.133 2.239.067.183 1.336 2.071 1.77 2.856.435.785 1.303 2.957 1.404 2.973.1.017.4.452.618.468.217.017.618-.083.651-.217.034-.134.334-.501.568-.568.234-.067.518.1.518.1l.134.368s.334.417.334.484.25.368.25.535c0 .167.267.35.167.417s-.016.167-.234.15c-.217-.016-.35-.116-.434-.116-.083 0-.017 0-.3.067-.285.066-.435.15-.535 0-.1-.15-.034-.301-.217-.301-.184 0-.351.134-.552.15-.2.017-.4.401-1.67-.484s-3.775-2.94-5.061-4.393c-1.287-1.454-1.487-2.289-1.637-3.341-.15-1.053 0-1.888-.953-1.804-.952.083-1.486 1.069-2.321 2.422-.836 1.353-2.105 3.14-2.289 3.575-.184.434-.367.818-.267.868.1.05.534 0 .718-.033.184-.034.501-.017.535.1.033.117.133.551.117.635-.017.083-.05.551-.05.551s.083.367 0 .384c-.084.017-.569.017-.569.017l-.334.1-.584-.334s-.418-.3-.535-.3c-.117 0-.234-.235-.234-.235s-.517-.6-.517-.885c0-.284.334-1.336.4-1.62.067-.284-.117-2.289.435-3.842.551-1.554.985-2.59.985-2.59s-1.62-.367-2.004-.45c-.384-.084-1.37-.435-1.554-.468-.183-.034-.635.117-.635.117v.234c0 .067.234.3-.2 1.002-.434.702-1.453 2.004-1.57 2.455-.117.452-.3.735-.585 1.02-.284.283-1.102.935-1.286 1.085-.184.15-1.32 1.42-1.403 1.687-.084.268-.267.518-.15.735.116.218.701.451.701.451l.969-.167.45.217s.318-.167.803.067c.484.234 1.069.401 1.186.635.117.234.2.518.133.568-.066.05-.668.2-.668.2s-.735.05-.919 0c-.183-.05-.668-.217-.801-.167-.134.05-.468.167-.468.167s.501.2.551.452c.05.25-.017.534-.4.534-.385 0-1.087-.167-1.588-.317-.5-.15-1.503-1.186-1.687-1.337-.184-.15-.752-.969-.935-1.27-.184-.3-.318-1.001-.268-1.285.05-.284.635-1.153.735-1.42.1-.268.635-1.855.852-2.356.218-.5.25-1.069.25-1.069s-.968 1.303-2.087 1.687c-1.12.385-3.174.802-4.393.886-1.22.083-2.506-.067-2.69.067-.183.133-.467.735-.5.918-.034.184-.018 1.253.016 1.437.033.184.234.651.267.802.034.15-.05.701-.05.701l-.217.084s.05 1.086-.05 1.203c-.1.116-.451.317-.485.434-.033.117-.267.217-.45.217-.184 0-.218.033-.251-.217-.034-.25 0-.668-.1-.668s-.368-.218-.368-.218-.25-.1-.234-.367c.017-.267.234-1.203.184-1.37-.05-.167-.2-.618-.2-.768 0-.15-.1-.885-.034-1.17.067-.283.334-2.689.885-3.307.552-.618 2.54-1.253 3.258-1.737.718-.485 1.536-.752 1.804-1.353.267-.602.751-2.372.735-3.274-.017-.902-.134-2.89-.1-3.19.033-.301.534-1.504.584-1.671.05-.167.05-1.136.05-1.136s-.234-.735-.518-.885c-.284-.15-.968-1.688-1.603-2.406-.635-.718-2.239-4.143-2.59-5.429-.35-1.286-1.503-6.682-1.42-9.054.084-2.372.251-5.946.05-7.032-.2-1.086-.901-3.708-1.786-4.393-.886-.685-2.253-1.048-2.253-1.048z" stroke="#000" stroke-width=".265"/>
</svg>
